{"title":"Beauty and the Beast (2012) S04E08 1080p WEB-DL HEVC DD5.1 x265","uid":15454164,"size":712296900,"categoryP":"video","categoryS":"hd___tv_shows","magnet":"?xt=urn:btih:31565d88a7704f53b1111c1a94a56e8229a6e6c3&amp;dn=Beauty+and+the+Beast+%282012%29+S04E08+1080p+WEB-DL+HEVC+DD5.1+x265&amp;tr=udp%3A%2F%2Ftracker.leechers-paradise.org%3A6969&amp;tr=udp%3A%2F%2Fzer0day.ch%3A1337&amp;tr=udp%3A%2F%2Fopen.demonii.com%3A1337&amp;tr=udp%3A%2F%2Ftracker.coppersurfer.tk%3A6969&amp;tr=udp%3A%2F%2Fexodus.desync.com%3A6969","seeders":0,"leechers":7,"uploader":"nayhtut","files":1,"time":1469968001,"description":"[Screenshots]\r\n\r\n \nhttps://s31.postimg.org/ot46ve3sb/Beauty_and_the_Beast_2012_S04_E08_1080p_WEB_DL_HE.jpg \nhttps://s31.postimg.org/duxiqy4kr/Beauty_and_the_Beast_2012_S04_E08_1080p_WEB_DL_HE.jpg \nhttps://s31.postimg.org/5qpem7i5n/Beauty_and_the_Beast_2012_S04_E08_1080p_WEB_DL_HE.jpg\r\n\r\n   \r\nSource: Beauty and the Beast (2012) S04E08 1080p WEB-DL DD5 1 H 264-DRACULA (1.63 GB)\r\n\r\nComplete name                            : Beauty.and.the.Beast.2012.S04E08.1080p.WEB-DL.HEVC.DD5.1.x265.mkv\r\nFormat                                   : Matroska\r\nFormat version                           : Version 4 / Version 2\r\nFile size                                : 679 MiB\r\nDuration                                 : 40mn 49s\r\nOverall bit rate                         : 2 327 Kbps\r\nWriting application                      : Lavf57.25.100\r\nWriting library                          : Lavf57.25.100\r\n\r\nVideo\r\n\r\nID                                       : 1\r\nFormat                                   : V_MPEGH/ISO/HEVC\r\nCodec ID                                 : V_MPEGH/ISO/HEVC\r\nDuration                                 : 40mn 49s\r\nBit rate                                 : 1 896 Kbps\r\nWidth                                    : 1 920 pixels\r\nHeight                                   : 1 080 pixels\r\nDisplay aspect ratio                     : 16:9\r\nFrame rate                               : 25.000 fps\r\nBits/(Pixel*Frame)                       : 0.037\r\nStream size                              : 554 MiB (82%)\r\nWriting library                          : Lavc57.48.101 libx265\r\nLanguage                                 : English\r\nDefault                                  : Yes\r\nForced                                   : No\r\nDURATION                                 : 00:40:49.291000000\r\nNUMBER_OF_FRAMES                         : 58723\r\nNUMBER_OF_BYTES                          : 1584444064\r\n_STATISTICS_WRITING_APP                  : mkvmerge v9.0.1 ('Obstacles') 64bit\r\n_STATISTICS_WRITING_DATE_UTC             : 2016-07-22 12:09:58\r\n_STATISTICS_TAGS                         : BPS DURATION NUMBER_OF_FRAMES NUMBER_OF_BYTES\r\n\r\nAudio\r\n\r\nID                                       : 2\r\nFormat                                   : AC-3\r\nFormat/Info                              : Audio Coding 3\r\nMode extension                           : CM (complete main)\r\nFormat settings, Endianness              : Big\r\nCodec ID                                 : A_AC3\r\nDuration                                 : 40mn 49s\r\nBit rate mode                            : Constant\r\nBit rate                                 : 384 Kbps\r\nChannel(s)                               : 6 channels\r\nChannel positions                        : Front: L C R, Side: L R, LFE\r\nSampling rate                            : 48.0 KHz\r\nBit depth                                : 16 bits\r\nCompression mode                         : Lossy\r\nStream size                              : 112 MiB (17%)\r\nWriting library                          : Lavc57.24.102 ac3\r\nLanguage                                 : English\r\nDefault                                  : Yes\r\nForced                                   : No\r\nDURATION                                 : 00:40:49.279000000\r\nNUMBER_OF_FRAMES                         : 76538\r\nNUMBER_OF_BYTES                          : 117562368\r\n_STATISTICS_WRITING_APP                  : mkvmerge v9.0.1 ('Obstacles') 64bit\r\n_STATISTICS_WRITING_DATE_UTC             : 2016-07-22 12:09:58\r\n_STATISTICS_TAGS                         : BPS DURATION NUMBER_OF_FRAMES NUMBER_OF_BYTES\r\n\r\nText\r\n\r\nID                                       : 3\r\nFormat                                   : ASS\r\nCodec ID                                 : S_TEXT/ASS\r\nCodec ID/Info                            : Advanced Sub Station Alpha\r\nCompression mode                         : Lossless\r\nWriting library                          : Lavc57.48.101 ssa\r\nLanguage                                 : English\r\nDefault                                  : Yes\r\nForced                                   : No\r\nDURATION                                 : 00:40:20.935000000\r\nNUMBER_OF_FRAMES                         : 938\r\nNUMBER_OF_BYTES                          : 41486\r\n_STATISTICS_WRITING_APP                  : mkvmerge v9.0.1 ('Obstacles') 64bit\r\n_STATISTICS_WRITING_DATE_UTC             : 2016-07-22 12:09:58\r\n_STATISTICS_TAGS                         : BPS DURATION NUMBER_OF_FRAMES NUMBER_OF_BYTES\r\n\r\nIMDb: http://www.imdb.com/title/tt2193041\r\n\r\nAfter adding torrent with magnet link,\r\n\r\nplease add this  following trackers list to the torrent for better seeds.\r\n\r\n\r\nudp://tracker.coppersurfer.tk:6969/announce\r\n\r\nudp://tracker.opentrackr.org:1337/announce\r\n \nhttp://tracker.baravik.org:6970/announce\r\n \nhttp://tracker2.wasabii.com.tw:6969/announce\r\n\r\nudp://9.rarbg.me:2710/announce\r\n\r\n\r\n__--__--__--__--__--__--__--__--__--__--__--__--__--\r\n\r\n\r\nEnjoy!","torrent":{"xt":"urn:btih:31565d88a7704f53b1111c1a94a56e8229a6e6c3","amp;dn":"Beauty+and+the+Beast+%282012%29+S04E08+1080p+WEB-DL+HEVC+DD5.1+x265","amp;tr":["udp%3A%2F%2Ftracker.leechers-paradise.org%3A6969","udp%3A%2F%2Fzer0day.ch%3A1337","udp%3A%2F%2Fopen.demonii.com%3A1337","udp%3A%2F%2Ftracker.coppersurfer.tk%3A6969","udp%3A%2F%2Fexodus.desync.com%3A6969"],"infoHash":"31565d88a7704f53b1111c1a94a56e8229a6e6c3","infoHashBuffer":{"type":"Buffer","data":[49,86,93,136,167,112,79,83,177,17,28,26,148,165,110,130,41,166,230,195]},"announce":[],"urlList":[]}}